<svg width="163" height="21" viewBox="0 0 163 21" fill="none" xmlns="http://www.w3.org/2000/svg">
<g clip-path="url(#clip0_onechain)">
<path d="M0.973633 15.5591C5.57172 15.5591 7.39219 8.21522 11.9894 8.21522V0.871338C7.39219 0.871338 5.57172 8.21522 0.973633 8.21522V15.5591Z" fill="#12BF77"/>
<path d="M11.9973 15.5591C16.5946 15.5591 18.4158 8.21516 23.0131 8.21516V0.871277C18.4158 0.871277 16.5946 8.21516 11.9973 8.21516V15.5591Z" fill="#12BF77"/>
<path d="M23.0139 15.5592C23.9878 15.5592 24.9217 15.1724 25.6103 14.4837C26.299 13.7951 26.6858 12.8611 26.6858 11.8873C26.6858 10.9134 26.299 9.97944 25.6103 9.29082C24.9217 8.6022 23.9878 8.21533 23.0139 8.21533V15.5592Z" fill="#12BF77"/>
</g>
<g clip-path="url(#clip1_onechain)">
<path d="M40 10.5C40 16.299 35.299 21 29.5 21C23.701 21 19 16.299 19 10.5C19 4.701 23.701 0 29.5 0C35.299 0 40 4.701 40 10.5ZM29.5 3C25.358 3 22 6.358 22 10.5C22 14.642 25.358 18 29.5 18C33.642 18 37 14.642 37 10.5C37 6.358 33.642 3 29.5 3Z" fill="#12BF77"/>
<path d="M48.1319 0.871277H53.9231V15.6145H50.1322V3.92528L47.0149 15.6145H43.0538L40.2097 4.01242V15.6145H37.1597V0.871277H43.0577L45.4344 10.9404L48.1319 0.871277Z" fill="#12BF77"/>
<path d="M63.5092 5.08618H67.0742L60.7285 19.8294H57.2507L59.1044 15.5514L54.5889 5.08618H58.5499L60.8672 11.4675L63.5092 5.08618Z" fill="#12BF77"/>
<path d="M66.9832 12.1843H70.9839C71.0275 13.3409 71.6573 14.141 72.8813 14.141C73.7011 14.141 74.2716 13.8043 74.2716 13.234C74.2716 12.4418 73.4794 12.2041 72.0812 11.7604L70.1639 11.1702C68.2032 10.5404 67.1932 9.52637 67.1932 8.00135C67.1932 5.93366 69.1103 4.7572 72.4811 4.7572C75.7649 4.7572 77.6821 5.94554 77.9356 8.10434H74.2716C74.2322 7.66099 74.0198 7.25102 73.6801 6.96332C73.3405 6.67562 72.9012 6.53337 72.4574 6.56743C71.5939 6.56743 71.1938 6.96354 71.1938 7.38738C71.1938 8.08453 72.0812 8.35783 73.3012 8.73811L75.2381 9.34812C76.3354 9.68481 78.2723 10.4216 78.2723 12.4854C78.2723 14.549 76.3354 15.9592 72.6912 15.9592C69.3004 15.9513 67.3199 14.6243 66.9832 12.1843Z" fill="#12BF77"/>
<text x="80" y="12" font-family="Arial, sans-serif" font-size="14" font-weight="bold" fill="#12BF77">OneChain</text>
</g>
<defs>
<clipPath id="clip0_onechain">
<rect width="27" height="21" fill="white"/>
</clipPath>
<clipPath id="clip1_onechain">
<rect x="35" y="0" width="128" height="21" fill="white"/>
</clipPath>
</defs>
</svg>
